<svg baseProfile="tiny" height="400px" version="1.2" viewBox="0,0,300,400" width="300px" xmlns="http://www.w3.org/2000/svg">
  <defs>
  <linearGradient id="silverGradient" x1="0%" y1="0%" x2="100%" y2="100%">
    <stop offset="0%" style="stop-color:#9ca3af;stop-opacity:1" />
    <stop offset="20%" style="stop-color:#6b7280;stop-opacity:1" />
    <stop offset="65%" style="stop-color:#adb5bd;stop-opacity:1" />
    <stop offset="100%" style="stop-color:#1f2937;stop-opacity:1" />
  </linearGradient>
</defs>
<path d="M150 20 C 190 80, 220 140, 200 190 C 185 210, 160 230, 150 245 C 140 230, 115 210, 100 190 C 80 140, 110 80, 150 20 Z" fill="#ff5a00" />
<path d="M150 70 C 165 105, 175 140, 160 180 C 155 195, 150 210, 150 220 C 150 210, 145 195, 140 180 C 125 140, 135 105, 150 70 Z" fill="#fff1d6" />
<g transform="rotate(-110 140 90)">
  <rect fill="#7c3c04" stroke="#ffffff" stroke-width="2" x="140" y="10" width="17" height="200" rx="4" />
  <rect fill="#242c2c" stroke="#ffffff" stroke-width="2" x="115" y="5" width="70" height="35" rx="6" />
</g>
<path d="M25 145 L 30 175 L 110 220 L 110 265 L 190 265 L 190 220 C 200 205, 250 190, 300 145 L 25 145 Z" fill="url(#silverGradient)" stroke="#ffffff" stroke-linejoin="round" stroke-width="2" />
<rect fill="url(#silverGradient)" stroke="#ffffff" stroke-width="2" height="20" rx="3" width="150" x="75.0" y="265" />
</svg>